<?xml version="1.0" encoding="UTF-8" standalone="no"?>
<!-- Created with Inkscape (http://www.inkscape.org/) -->

<svg
   xmlns:dc="http://purl.org/dc/elements/1.1/"
   xmlns:cc="http://creativecommons.org/ns#"
   xmlns:rdf="http://www.w3.org/1999/02/22-rdf-syntax-ns#"
   xmlns:svg="http://www.w3.org/2000/svg"
   xmlns="http://www.w3.org/2000/svg"
   xmlns:sodipodi="http://sodipodi.sourceforge.net/DTD/sodipodi-0.dtd"
   xmlns:inkscape="http://www.inkscape.org/namespaces/inkscape"
   width="744.09448819"
   height="1052.3622047"
   id="svg2"
   version="1.1"
   inkscape:version="0.48.0 r9654"
   sodipodi:docname="logo_april_2011.svg"
   inkscape:export-filename="/home/caner/communication/logo_april_2011.png"
   inkscape:export-xdpi="90"
   inkscape:export-ydpi="90">
  <defs
     id="defs4">
    <inkscape:path-effect
       effect="spiro"
       id="path-effect3803"
       is_visible="true" />
    <inkscape:path-effect
       effect="spiro"
       id="path-effect3799"
       is_visible="true" />
  </defs>
  <sodipodi:namedview
     id="base"
     pagecolor="#ffffff"
     bordercolor="#666666"
     borderopacity="1.0"
     inkscape:pageopacity="0.0"
     inkscape:pageshadow="2"
     inkscape:zoom="1.4"
     inkscape:cx="289.66124"
     inkscape:cy="719.32753"
     inkscape:document-units="px"
     inkscape:current-layer="layer1"
     showgrid="false"
     showguides="true"
     inkscape:guide-bbox="true"
     inkscape:window-width="1434"
     inkscape:window-height="854"
     inkscape:window-x="0"
     inkscape:window-y="0"
     inkscape:window-maximized="0">
    <sodipodi:guide
       orientation="1,0"
       position="434.28571,733.57143"
       id="guide4584" />
    <sodipodi:guide
       orientation="1,0"
       position="281.07143,751.42857"
       id="guide4586" />
    <sodipodi:guide
       orientation="0,1"
       position="281.07143,660.71429"
       id="guide4588" />
    <sodipodi:guide
       orientation="0,1"
       position="207.85714,851.42857"
       id="guide4622" />
    <sodipodi:guide
       orientation="0,1"
       position="200,640"
       id="guide4624" />
  </sodipodi:namedview>
  <metadata
     id="metadata7">
    <rdf:RDF>
      <cc:Work
         rdf:about="">
        <dc:format>image/svg+xml</dc:format>
        <dc:type
           rdf:resource="http://purl.org/dc/dcmitype/StillImage" />
        <dc:title></dc:title>
      </cc:Work>
    </rdf:RDF>
  </metadata>
  <g
     inkscape:label="Layer 1"
     inkscape:groupmode="layer"
     id="layer1">
    <g
       id="g4567"
       transform="matrix(1.0034482,0,0,0.70110697,-0.97333165,77.175481)">
      <path
         inkscape:connector-curvature="0"
         d="m 340.5962,339.99729 c -1.93951,-8.9246 -4.66748,-17.65958 -7.56065,-26.31362 -0.92392,-2.76364 -1.89917,-5.51039 -2.91105,-8.24305 -1.41136,-3.81152 -1.00394,-3.00249 -2.34813,-5.20387 -3.16732,-5.91985 -6.0163,-12.00556 -8.54454,-18.22472 -0.74866,-3.33433 -1.31591,-3.52873 5.65239,-5.15874 0.84761,-0.19827 1.90003,2.66758 2.05446,3.28315 0.11381,0.45368 0.10724,0.92952 0.17831,1.39183 0.0451,0.29324 -0.0669,-0.58958 -0.10031,-0.88438 0.10765,-0.19608 0.10862,-0.6523 0.32295,-0.58825 1.58689,0.47416 3.01899,1.36307 4.53115,2.03867 2.69699,1.20494 5.41133,2.37138 8.09628,3.60294 7.68862,3.52671 15.09378,7.03478 22.57007,11.0178 3.80167,2.02534 7.5137,4.21463 11.27054,6.32195 3.32062,2.15105 6.70409,4.20807 9.96187,6.45317 6.22175,4.28771 8.97959,6.66933 14.57757,11.36732 0.61123,0.51295 7.36672,6.28611 8.63706,7.31848 0.73436,0.59679 1.50339,1.14961 2.25508,1.72442 0.75571,0.74848 3.12532,2.52667 3.26346,3.7708 0.34009,3.06293 0.11241,2.98301 -1.17334,4.5513 0,0 -5.35253,-5.25361 -5.35253,-5.25361 l 0,0 c -0.80263,1.21185 -0.77295,0.98064 -0.40632,3.56498 0.0482,0.33962 0.49991,0.49424 0.63568,0.80925 0.282,0.65425 -2.48772,-3.25593 -1.53103,-1.49132 -0.84123,-0.6468 -1.7001,-1.27127 -2.52368,-1.94039 -4.9728,-4.04015 -9.66422,-8.42932 -14.71278,-12.37744 -2.53434,-1.98193 -5.10409,-3.92266 -7.75086,-5.75175 -3.12333,-2.15841 -6.36739,-4.13666 -9.55108,-6.20499 -3.66183,-2.05665 -7.27946,-4.19407 -10.9855,-6.16994 -7.35284,-3.92018 -14.66921,-7.38828 -22.23356,-10.85791 -2.6987,-1.23785 -5.42874,-2.40625 -8.13768,-3.62152 -1.6757,-0.75175 -3.42774,-1.35749 -5.01614,-2.27948 -1.25033,-0.72576 -2.29772,-1.75518 -3.44658,-2.63277 -1.85285,-5.5274 -0.4933,-0.40565 0.46254,-0.88503 7.10956,-3.56574 7.66579,-3.41025 5.40127,-3.93943 2.39355,5.90603 5.10647,11.67762 8.09608,17.30541 0.38792,0.69803 0.83434,1.36663 1.16375,2.0941 1.51034,3.33545 3.83844,10.11362 4.73778,12.8072 2.99255,8.96283 5.81037,18.01083 7.7965,27.2578 0,0 -7.37903,1.34164 -7.37903,1.34164 z"
         id="path2995"
         style="fill:#000000;fill-opacity:0;stroke:none" />
      <path
         transform="translate(13.214286,-28.214285)"
         inkscape:transform-center-y="1.2139953"
         inkscape:transform-center-x="-1.437334"
         d="m 366.07142,326.6479 -22.49155,23.09982 -28.9195,-14.2525 4.61831,-31.90834 31.77378,-5.46795 z"
         inkscape:randomized="0"
         inkscape:rounded="0"
         inkscape:flatsided="true"
         sodipodi:arg2="0.7720572"
         sodipodi:arg1="0.14373867"
         sodipodi:r2="22.187847"
         sodipodi:r1="27.425688"
         sodipodi:cy="322.71933"
         sodipodi:cx="338.92856"
         sodipodi:sides="5"
         id="path3783"
         style="fill:#000000;fill-opacity:1;stroke:#000000;stroke-width:1.33399999;stroke-miterlimit:4;stroke-opacity:1;stroke-dasharray:none"
         sodipodi:type="star" />
      <path
         transform="matrix(1.2233638,0,0,1.1609066,-97.84586,-95.712158)"
         d="m 434.28571,352.89789 c 0,26.52939 -27.6624,48.03571 -61.78571,48.03571 -34.12331,0 -61.78571,-21.50632 -61.78571,-48.03571 0,-26.52939 27.6624,-48.03572 61.78571,-48.03572 34.12331,0 61.78571,21.50633 61.78571,48.03572 z"
         sodipodi:ry="48.035713"
         sodipodi:rx="61.785713"
         sodipodi:cy="352.89789"
         sodipodi:cx="372.5"
         id="path3793"
         style="fill:none;stroke:#000000;stroke-width:1.33399999;stroke-miterlimit:4;stroke-opacity:1;stroke-dasharray:none"
         sodipodi:type="arc" />
      <path
         transform="translate(2.4999996,-9.2857141)"
         d="m 380,332.71933 c 0.21488,0.59092 -0.69053,0.58119 -0.98214,0.35714 -0.79025,-0.60715 -0.40501,-1.8025 0.26785,-2.32143 1.2036,-0.92822 2.91333,-0.30489 3.66072,0.89286 1.09683,1.75775 0.20895,4.04178 -1.51786,5 -2.30156,1.27715 -5.17684,0.11521 -6.33928,-2.14285 -1.46282,-2.84154 -0.0227,-6.31514 2.76785,-7.67858 3.37972,-1.6513 7.45526,0.0691 9.01786,3.39286 1.84146,3.91692 -0.16044,8.59653 -4.01785,10.35714 -4.45354,2.03269 -9.73858,-0.25147 -11.69643,-4.64285 -2.22464,-4.98977 0.34228,-10.88115 5.26785,-13.03572 5.52574,-2.41709 12.02411,0.43295 14.375,5.89285 2.60993,6.06153 -0.5235,13.16738 -6.51785,15.71429"
         sodipodi:t0="0"
         sodipodi:argument="-17.627531"
         sodipodi:radius="12.54075"
         sodipodi:revolution="3"
         sodipodi:expansion="1"
         sodipodi:cy="332.71933"
         sodipodi:cx="380"
         id="path3795"
         style="fill:none;stroke:#000000;stroke-width:1px;stroke-linecap:butt;stroke-linejoin:miter;stroke-opacity:1"
         sodipodi:type="spiral" />
      <path
         transform="matrix(1.0809429,-0.20824305,0.21170252,1.0989002,-70.46228,44.081572)"
         inkscape:transform-center-y="1.3251411"
         inkscape:transform-center-x="-1.6797616"
         d="m 333.39286,318.79074 -25.90728,-19.34169 10.38926,-30.6162 32.32819,0.41985 9.59066,30.87567 z"
         inkscape:randomized="0"
         inkscape:rounded="0"
         inkscape:flatsided="true"
         sodipodi:arg2="2.2121011"
         sodipodi:arg1="1.5837826"
         sodipodi:r2="22.249844"
         sodipodi:r1="27.502319"
         sodipodi:cy="291.29074"
         sodipodi:cx="333.75"
         sodipodi:sides="5"
         id="path3805"
         style="fill:none;stroke:#000000;stroke-width:1.33399999;stroke-miterlimit:4;stroke-opacity:1;stroke-dasharray:none"
         sodipodi:type="star" />
      <path
         inkscape:connector-curvature="0"
         id="path3825"
         d="m 352.58674,368.707 c -6.16831,-0.52433 -7.95309,-0.72762 -11.23795,-1.28003 -17.65414,-2.96886 -32.89028,-10.32614 -43.56331,-21.036 -4.79713,-4.81369 -8.09163,-9.37387 -10.49003,-14.52008 -10.02545,-21.51151 -1.17307,-45.11718 22.41009,-59.75856 10.94993,-6.79816 23.74226,-10.97781 38.20924,-12.48416 5.02777,-0.5235 14.94064,-0.52237 19.95052,0.002 9.48709,0.99351 18.56462,3.21394 26.33434,6.44156 2.26387,0.94043 2.53833,1.11802 2.14658,1.38892 -0.24706,0.17083 -3.68799,2.38412 -7.64653,4.91841 -3.95853,2.5343 -7.23798,4.64524 -7.28766,4.69098 -0.14526,0.13374 8.0854,31.52883 8.33724,31.80163 0.17059,0.18479 28.25545,2.04253 32.29851,2.13647 0.61341,0.0142 0.78346,-0.34293 3.53554,-7.42606 l 2.89113,-7.44104 0.57726,1.30673 c 2.54215,5.75465 3.7527,12.86671 3.30968,19.44458 -1.49797,22.24177 -21.64937,41.76574 -50.6065,49.03084 -3.66815,0.92031 -8.81386,1.82996 -13.00571,2.29912 -3.46052,0.38731 -13.69583,0.69408 -16.16244,0.48441 l 0,0 z m 38.33039,-35.65172 c 2.78023,-2.74532 4.00927,-5.95809 3.78487,-9.8938 -0.10909,-1.91331 -0.26852,-2.56426 -1.01093,-4.12755 -2.96588,-6.24531 -10.28363,-8.64263 -16.23241,-5.3178 -1.2634,0.70613 -3.21773,2.76636 -3.9084,4.1202 -1.5182,2.97591 -1.64273,6.33778 -0.33804,9.12584 2.77225,5.92416 10.32412,7.51935 14.83642,3.13389 1.39278,-1.35362 2.05679,-2.63565 2.43751,-4.70615 0.85466,-4.64798 -2.71577,-9.06322 -7.32906,-9.06322 -5.43616,0 -8.731,6.19157 -5.37885,10.10779 3.10482,3.6273 8.63021,2.05508 8.64446,-2.45972 0.004,-1.11525 -0.11552,-1.45334 -0.77689,-2.20659 -1.92722,-2.195 -5.02734,-1.49806 -5.02734,1.13019 0,0.4969 0.13637,1.03983 0.30305,1.2065 0.4446,0.4446 1.95485,0.38331 2.13519,-0.0867 0.18546,-0.4833 0.0879,-0.58496 -0.67247,-0.70101 -0.80554,-0.12293 -0.89927,-0.53341 -0.26632,-1.16635 0.70527,-0.70527 1.37316,-0.65485 2.29991,0.17362 1.91048,1.70787 0.27847,4.86136 -2.51588,4.86136 -1.77066,0 -3.43873,-1.24473 -4.02704,-3.00501 -0.42135,-1.26075 -0.3519,-2.02183 0.31528,-3.45463 2.35627,-5.06026 9.87511,-3.70435 11.07087,1.99647 1.0297,4.90914 -3.68689,9.4989 -8.73981,8.5048 -0.84252,-0.16576 -1.93823,-0.50869 -2.43491,-0.76208 -1.36087,-0.69426 -3.02308,-2.4802 -3.7575,-4.03717 -0.55378,-1.17402 -0.65517,-1.74068 -0.65517,-3.6618 0,-1.93341 0.10034,-2.48688 0.67186,-3.70603 3.60046,-7.68047 14.50236,-7.35496 18.24607,0.54479 0.72467,1.52916 0.78005,1.84322 0.78005,4.42393 0,2.68446 -0.0316,2.84403 -0.93821,4.74275 -1.06323,2.22665 -2.9844,4.3386 -4.76293,5.23592 -1.40738,0.71005 -1.33371,0.61915 -1.0028,1.23745 l 0.28178,0.52651 1.24958,-0.63321 c 0.68727,-0.34826 1.91039,-1.28572 2.71806,-2.08324 l 0,0 z m -20.65841,-20.39039 c 6.83198,-7.2226 12.47993,-13.27029 12.551,-13.43932 0.0894,-0.21258 -16.59348,-32.29429 -17.20545,-33.08664 -0.10631,-0.13765 -35.89455,6.34476 -36.11585,6.54175 -0.30371,0.27035 -5.17118,36.62833 -4.93951,36.89611 0.30323,0.35051 32.70192,16.32765 32.99891,16.27315 0.15902,-0.0292 5.87893,-5.96246 12.7109,-13.18505 z"
         style="fill:#ffb380;fill-opacity:1;stroke:#000000;stroke-width:0.33688587;stroke-miterlimit:4;stroke-opacity:1;stroke-dasharray:none" />
      <path
         transform="translate(4.6428567,-23.928571)"
         inkscape:transform-center-y="-2.1207648"
         inkscape:transform-center-x="-0.4909573"
         d="m 417.5,334.14788 -31.8564,-1.86771 -8.06786,-30.87439 26.87018,-17.21371 24.67455,20.23573 z"
         inkscape:randomized="0"
         inkscape:rounded="0"
         inkscape:flatsided="true"
         sodipodi:arg2="1.6293584"
         sodipodi:arg1="1.0010399"
         sodipodi:r2="21.960934"
         sodipodi:r1="27.145206"
         sodipodi:cy="311.29074"
         sodipodi:cx="402.85715"
         sodipodi:sides="5"
         id="path3785"
         style="fill:#ffffff;fill-opacity:1;stroke:#000000;stroke-width:1.33399999;stroke-miterlimit:4;stroke-opacity:1;stroke-dasharray:none"
         sodipodi:type="star" />
      <path
         transform="translate(1.7423852,-10.043329)"
         d="m 411.63716,296.51553 c 0,2.23157 -1.97864,4.04061 -4.41942,4.04061 -2.44077,0 -4.41941,-1.80904 -4.41941,-4.04061 0,-2.23156 1.97864,-4.04061 4.41941,-4.04061 2.44078,0 4.41942,1.80905 4.41942,4.04061 z"
         sodipodi:ry="4.0406103"
         sodipodi:rx="4.4194174"
         sodipodi:cy="296.51553"
         sodipodi:cx="407.21774"
         id="path3829"
         style="fill:#000000;fill-opacity:1;stroke:#000000;stroke-width:1.33399999;stroke-miterlimit:4;stroke-opacity:1;stroke-dasharray:none"
         sodipodi:type="arc" />
      <path
         transform="translate(-53.437195,-1.7095633)"
         d="m 411.63716,296.51553 c 0,2.23157 -1.97864,4.04061 -4.41942,4.04061 -2.44077,0 -4.41941,-1.80904 -4.41941,-4.04061 0,-2.23156 1.97864,-4.04061 4.41941,-4.04061 2.44078,0 4.41942,1.80905 4.41942,4.04061 z"
         sodipodi:ry="4.0406103"
         sodipodi:rx="4.4194174"
         sodipodi:cy="296.51553"
         sodipodi:cx="407.21774"
         id="path3829-5"
         style="fill:#ffffff;fill-opacity:1;stroke:#000000;stroke-width:1.33399999;stroke-miterlimit:4;stroke-opacity:1;stroke-dasharray:none"
         sodipodi:type="arc" />
      <path
         transform="translate(61.814729,-1.1841891)"
         sodipodi:end="3.9268009"
         sodipodi:start="0.11363334"
         d="m 280.25952,355.88012 c -0.56142,4.36507 -5.00447,7.49981 -9.92383,7.00165 -4.91936,-0.49817 -8.45216,-4.44059 -7.89074,-8.80565 0.22972,-1.78612 1.13448,-3.45052 2.56679,-4.72193 l 6.34049,5.62393 z"
         sodipodi:ry="7.9549513"
         sodipodi:rx="8.9651041"
         sodipodi:cy="354.97812"
         sodipodi:cx="271.35223"
         id="path3857"
         style="fill:#ff2a2a;fill-opacity:1;stroke:#000000;stroke-width:1.33399999;stroke-miterlimit:4;stroke-opacity:1;stroke-dasharray:none"
         sodipodi:type="arc" />
      <path
         sodipodi:nodetypes="cscccsccscssccscccccscccccccccccccccccccccccccccssccccscccc"
         inkscape:connector-curvature="0"
         d="m 300.91511,274.66062 c 0.0807,-0.23825 -0.17421,-0.12777 -0.10871,-0.37047 0.30784,-1.14085 0.37246,-2.38031 0.20342,-3.54623 -0.0356,-0.24546 -0.1007,-0.48592 -0.15105,-0.72889 -0.19517,-0.40649 -0.20454,-0.58717 -0.58466,-0.83632 -0.10522,-0.069 -0.2312,-0.10384 -0.35345,-0.13588 -0.57101,-0.14968 -1.12227,-0.077 -1.7004,-0.0219 -0.51377,0.12137 -0.98525,0.31168 -1.42589,0.5959 -0.16464,0.1062 -0.31874,0.22776 -0.4848,0.3318 -0.60504,0.3791 -0.60925,0.35337 -1.26666,0.64759 -0.27697,0.0494 -0.55024,0.12684 -0.83092,0.14813 -0.68552,0.052 -1.60385,-0.10516 -2.20381,-0.4504 -0.45835,-0.26375 -0.60338,-0.49148 -0.91854,-0.86525 -0.0679,-0.19693 -0.17665,-0.38459 -0.2038,-0.59078 -0.0464,-0.35234 0.0746,-0.59775 0.1715,-0.91294 0.16009,-0.52092 0.29282,-1.0498 0.44662,-1.57265 0.28081,-0.75935 0.74733,-1.50635 0.62686,-2.34337 -0.0429,-0.29812 0.008,-0.30537 -0.11978,-0.22335 0.0304,0.0627 0.10105,0.11932 0.0912,0.18809 -0.007,0.0459 -0.0815,0.0493 -0.12695,0.0621 -0.13349,0.0375 -0.26986,0.0655 -0.40683,0.0879 -0.32178,0.0526 -0.78295,0.10119 -1.10856,0.0832 -0.20487,-0.0113 -0.40666,-0.0541 -0.60999,-0.0812 -0.8221,-0.20099 -1.77423,-0.54481 -1.70547,-1.56714 0.009,-0.12836 0.0728,-0.24718 0.10915,-0.37077 -0.0179,0.0568 0.31517,-0.91917 0.29727,-0.86236 l 0.93544,1.002 0,0 c -0.0163,0.11848 -0.0327,0.23698 -0.049,0.35546 -0.002,-0.0351 0.006,-0.0722 -0.006,-0.10534 -0.0107,-0.029 -0.0297,-0.0611 -0.0591,-0.0722 -0.0167,-0.006 -0.0434,0.0166 -0.0412,0.034 0.0311,0.23652 0.59056,0.26365 0.71216,0.33834 0.12887,0.0224 0.25608,0.0578 0.38661,0.0672 0.23222,0.0168 0.63148,-0.0161 0.86271,-0.0541 0.22416,-0.0368 0.7946,-0.19859 0.9991,-0.16563 0.25865,0.0417 0.48809,0.18768 0.73213,0.28152 0.10221,0.16426 0.23328,0.3143 0.30662,0.49279 0.0599,0.14585 0.0729,0.30737 0.0866,0.46406 0.0891,1.02436 -0.2827,1.81912 -0.6766,2.73926 -0.46059,1.56162 0.0582,-0.21918 -0.32696,1.16355 -0.0426,0.15277 -0.0867,0.30513 -0.13461,0.45638 -0.0227,0.0717 -0.0383,0.14735 -0.077,0.2121 -0.011,0.0184 -0.0412,0.0134 -0.0618,0.0201 -0.015,0.0285 -0.0301,0.057 -0.0452,0.0855 0.0548,0.0711 0.32276,0.43407 0.40871,0.48843 0.14623,0.0925 0.31343,0.15028 0.4781,0.20536 0.49846,0.16674 1.01627,0.19901 1.53354,0.11081 0.17825,-0.0773 0.36132,-0.14467 0.53474,-0.23189 0.61085,-0.3072 0.48702,-0.31024 1.09199,-0.68421 0.60915,-0.37656 1.25262,-0.62675 1.96098,-0.76504 0.55075,-0.0471 1.03841,-0.11857 1.59385,-0.0421 0.87699,0.12075 1.6193,0.50584 2.08984,1.26386 0.1502,0.24195 0.22304,0.52262 0.33456,0.78394 0.0569,0.28778 0.13101,0.57279 0.17063,0.86335 0.1836,1.34667 0.43957,3.43083 0.0864,4.74489 -0.0605,0.2251 -0.50139,-0.24697 -0.57663,-0.0262 l -1.12026,1.14505 z"
         id="path3867"
         style="fill:#000000;fill-opacity:1;stroke:#000000;stroke-width:0.61202317;stroke-miterlimit:4;stroke-opacity:1;stroke-dasharray:none" />
    </g>
    <g
       id="g4648"
       transform="matrix(1,0,0,0.72438736,0,68.569866)">
      <text
         transform="scale(1.2541932,0.79732535)"
         sodipodi:linespacing="125%"
         id="text4580"
         y="312.03162"
         x="222.42545"
         style="font-size:20.37260246px;font-style:normal;font-weight:normal;line-height:125%;letter-spacing:0px;word-spacing:0px;fill:#000000;fill-opacity:1;stroke:none;font-family:Bitstream Vera Sans"
         xml:space="preserve"><tspan
           y="312.03162"
           x="222.42545"
           id="tspan4582"
           sodipodi:role="line">Living Being</tspan></text>
      <text
         transform="scale(1.4843541,0.67369369)"
         sodipodi:linespacing="125%"
         id="text4590"
         y="337.8996"
         x="184.77095"
         style="font-size:51.92041779px;font-style:normal;font-weight:normal;line-height:125%;letter-spacing:0px;word-spacing:0px;fill:#000000;fill-opacity:1;stroke:none;font-family:Bitstream Vera Sans"
         xml:space="preserve"><tspan
           y="337.8996"
           x="184.77095"
           id="tspan4592"
           sodipodi:role="line">Free</tspan></text>
    </g>
    <flowRoot
       xml:space="preserve"
       id="flowRoot3889"
       style="font-size:15px;font-style:normal;font-weight:normal;line-height:125%;letter-spacing:0px;word-spacing:0px;fill:#000000;fill-opacity:1;stroke:none;font-family:Bitstream Vera Sans"
       transform="matrix(1.8947543,0,0,1.1845876,-237.68734,-130.34332)"><flowRegion
         id="flowRegion3891"><rect
           id="rect3893"
           width="230.71428"
           height="23.928585"
           x="272.14285"
           y="393.79074" /></flowRegion><flowPara
         id="flowPara3895">Foundation</flowPara></flowRoot>  </g>
</svg>
